<svg xmlns="http://www.w3.org/2000/svg" viewBox="0 0 62.62 54.79"><g id="Layer_2" data-name="Layer 2"><g id="Layer_1-2" data-name="Layer 1"><g id="heart"><path d="M57.13,5.41a18.84,18.84,0,0,0-25.82-.57,18.84,18.84,0,0,0-25.82.57,18.43,18.43,0,0,0,0,26.25c2.09,2.08,21.63,21.41,21.63,21.41a6,6,0,0,0,8.38,0L57.13,31.66A18.43,18.43,0,0,0,57.13,5.41ZM54.34,28.9,32.7,50.31a2,2,0,0,1-2.78,0L8.28,28.9a14.58,14.58,0,0,1,0-20.73,14.87,14.87,0,0,1,20.38-.43l2.65,2.38L34,7.74a14.87,14.87,0,0,1,20.38.43A14.58,14.58,0,0,1,54.34,28.9Z"/><path d="M18.1,9.78h0A8.31,8.31,0,0,0,9.78,18.1h0a1,1,0,0,0,2,0h0a6.36,6.36,0,0,1,6.36-6.36h0a1,1,0,0,0,0-2Z"/></g></g></g></svg>