<svg xmlns="http://www.w3.org/2000/svg" viewBox="0 0 60.7 60"><g id="Layer_2" data-name="Layer 2"><g id="_12" data-name="12"><g id="_1065_Buy_commerce_e_package_purchase" data-name="1065, Buy, commerce, e, package, purchase"><path d="M59.28,57.5H56.66C52.82,5.2,52.92,7.4,52.92,7.2s-.1-.2-.1-.3.3.3-6.46-6.5a1.54,1.54,0,0,0-.91-.4h-29a1.18,1.18,0,0,0-.81.3C7.57,7,8.08,6.6,8,6.7a.86.86,0,0,0-.3.6c0,.1-3,40.5-3.74,50.2H1.31A1.33,1.33,0,0,0,0,58.8,1.25,1.25,0,0,0,1.31,60H59.38a1.32,1.32,0,0,0,1.32-1.2A1.51,1.51,0,0,0,59.28,57.5ZM16.87,2.5H44.94l3.74,3.7H12.32ZM6.36,57.5,10,8.8H50.6l3.63,48.7Z"/><path d="M40.4,13.8a3.71,3.71,0,0,0-3.74,3.7A3.67,3.67,0,0,0,39.19,21v9a8.79,8.79,0,0,1-17.58,0V21a3.67,3.67,0,0,0,2.53-3.5,3.71,3.71,0,0,0-3.74-3.7,3.78,3.78,0,0,0-3.74,3.7A3.67,3.67,0,0,0,19.19,21v9a11.31,11.31,0,0,0,22.62,0V21a3.67,3.67,0,0,0,2.53-3.5A4,4,0,0,0,40.4,13.8ZM20.2,16.3a1.24,1.24,0,0,1,1.21,1.3,1.22,1.22,0,0,1-1.21,1.2,1.25,1.25,0,1,1,0-2.5Zm20.2,2.5a1.22,1.22,0,0,1-1.21-1.2,1.31,1.31,0,0,1,1.21-1.3,1.33,1.33,0,0,1,1.31,1.3A1.4,1.4,0,0,1,40.4,18.8Z"/><rect x="18.99" y="47.5" width="2.52" height="2.5"/><rect x="24.04" y="47.5" width="2.52" height="2.5"/><rect x="29.09" y="47.5" width="2.52" height="2.5"/><rect x="34.14" y="47.5" width="2.52" height="2.5"/><rect x="39.08" y="47.5" width="2.53" height="2.5"/></g></g></g></svg>