<svg xmlns="http://www.w3.org/2000/svg" viewBox="0 0 66 66.41"><g id="Layer_2" data-name="Layer 2"><g id="Layer_1-2" data-name="Layer 1"><path d="M28,23.51a6,6,0,1,0,4.22,1.75A5.89,5.89,0,0,0,28,23.51Zm2.8,8.76a4.07,4.07,0,0,1-5.6,0A4,4,0,0,1,28,25.51a4,4,0,0,1,2.8,6.76Z" fill="#231f20"/><path d="M63.71,54.9h-.22V32.67a7.59,7.59,0,0,0-2.24-5.39L55.77,21.8l1.7-1.69L37.37,0,1.52,35.85a5.18,5.18,0,0,0,0,7.34L20.21,61.88l1.41-1.42a3.2,3.2,0,0,1,0-4.51l14.6-14.59v1.11A9.13,9.13,0,0,0,38.91,49,7.16,7.16,0,0,1,41,54.06v.84H39.77a2.29,2.29,0,0,0-2.28,2.29v6.93a2.28,2.28,0,0,0,2.28,2.29H63.71A2.29,2.29,0,0,0,66,64.12V57.19A2.3,2.3,0,0,0,63.71,54.9Zm-43.5-.36a5.18,5.18,0,0,0-1.48,3L2.93,41.77a3.2,3.2,0,0,1,0-4.51L37.37,2.83,54.64,20.11l-5.23,5.23-1.53-1.53a1,1,0,0,0-.25-.93,3.91,3.91,0,0,1,0-5.54l.71-.71-7.5-7.5-.7.71a4,4,0,0,1-5.54,0l-.71-.71L7.67,35.35l.7.71a3.91,3.91,0,0,1,0,5.54l-.7.71,7.49,7.49.71-.7a4,4,0,0,1,5.54,0l.71.7L40.92,31l1.41,1.42-5.52,5.52a1,1,0,0,0-.5.5Zm19-25.22.27.27L22.06,47a6,6,0,0,0-6.84,0l-4.78-4.79a6,6,0,0,0,0-6.84L34,11.9a6,6,0,0,0,6.83,0l4.79,4.79a5.83,5.83,0,0,0-1.09,3.42,5.67,5.67,0,0,0,.1,1,5,5,0,0,0-5.34,8.2Zm1.08,18.24a7.15,7.15,0,0,1-2.1-5.09V39.36l5.53-5.53.55.55c-1.63,2.53-3.13,7.25.59,11a1,1,0,0,0,.71.3,1,1,0,0,0,.71-1.71c-3.88-3.88-.09-8.84.08-9l.55-.7L40.65,27.9a3,3,0,0,1,0-4.24,3,3,0,0,1,4.24,0l10,10a1,1,0,1,0,1.42-1.42l-5.49-5.48,3.54-3.54,5.48,5.48a5.58,5.58,0,0,1,1.65,4V54.9H43v-.84A9.12,9.12,0,0,0,40.32,47.56ZM64,64.12a.29.29,0,0,1-.29.29H39.77a.29.29,0,0,1-.28-.29V57.19a.29.29,0,0,1,.28-.29H63.71a.29.29,0,0,1,.29.29Z" fill="#231f20"/><path d="M61.44,59.6h-4.3a1,1,0,0,0,0,2h4.3a1,1,0,0,0,0-2Z" fill="#231f20"/></g></g></svg>