<svg xmlns="http://www.w3.org/2000/svg" xmlns:xlink="http://www.w3.org/1999/xlink" viewBox="0 0 131.89 191.57"><defs><radialGradient id="radial-gradient" cx="66.18" cy="52.7" r="61.81" gradientTransform="matrix(0.9, -0.06, 0.04, 0.52, 10.54, 45.55)" gradientUnits="userSpaceOnUse"><stop offset="0" stop-color="#fbdd8c"/><stop offset="1" stop-color="#b7893c"/></radialGradient></defs><g id="Layer_2" data-name="Layer 2"><g id="Layer_1-2" data-name="Layer 1"><path d="M2.77,151.7h5.3v19h9.26v4.45H2.77Z" transform="translate(-0.72)" fill="#123356"/><path d="M27.36,151.7h6.35l7.36,23.46H35.46l-3.07-11.88c-.65-2.35-1.28-5.12-1.9-7.57h-.15c-.56,2.48-1.19,5.22-1.84,7.57l-3.08,11.88H20Zm-2.51,13.75H36.14v4.12H24.85Z" transform="translate(-0.72)" fill="#123356"/><path d="M45.13,151.7h8c4.87,0,8.65,1.34,8.65,5.82a5.43,5.43,0,0,1-3.09,5.06v.15A5.34,5.34,0,0,1,63,168.25c0,4.77-4,6.91-9.14,6.91h-8.7Zm7.78,9.4c2.58,0,3.71-1.09,3.71-2.8s-1.2-2.51-3.67-2.51H50.43v5.31Zm.49,10c2.89,0,4.38-1,4.38-3.16S56.31,165,53.4,165h-3v6.06Z" transform="translate(-0.72)" fill="#123356"/><path d="M73.07,151.7h6.34l7.37,23.46H81.17L78.1,163.28c-.65-2.35-1.28-5.12-1.91-7.57h-.14c-.57,2.48-1.19,5.22-1.85,7.57l-3.08,11.88H65.7Zm-2.51,13.75H81.84v4.12H70.56Z" transform="translate(-0.72)" fill="#123356"/><path d="M90.83,151.7h5.31v9.58h.13l7-9.58h5.83L102,161.06l8.4,14.1h-5.82l-5.7-9.91-2.74,3.62v6.29H90.83Z" transform="translate(-0.72)" fill="#123356"/><path d="M114,164.29V151.7h5.31v13.13c0,4.59,1.45,6.18,4.07,6.18s4.16-1.59,4.16-6.18V151.7h5.11v12.59c0,7.88-3.2,11.3-9.27,11.3S114,172.17,114,164.29Z" transform="translate(-0.72)" fill="#123356"/><path d="M17.17,190l.79-.91a4.13,4.13,0,0,0,2.9,1.3c1.38,0,2.19-.69,2.19-1.71s-.76-1.41-1.75-1.85l-1.5-.66a3,3,0,0,1-2.13-2.7c0-1.61,1.4-2.79,3.3-2.79a4.31,4.31,0,0,1,3.09,1.3l-.7.86a3.38,3.38,0,0,0-2.39-1c-1.17,0-1.95.6-1.95,1.54s.91,1.39,1.73,1.73l1.5.65a2.93,2.93,0,0,1,2.16,2.81c0,1.65-1.37,3-3.57,3A5,5,0,0,1,17.17,190Z" transform="translate(-0.72)" fill="#123356"/><path d="M26.34,186.09c0-3.36,1.85-5.4,4.48-5.4s4.49,2.05,4.49,5.4-1.85,5.48-4.49,5.48S26.34,189.45,26.34,186.09Zm7.59,0c0-2.61-1.23-4.23-3.11-4.23s-3.1,1.62-3.1,4.23,1.23,4.31,3.1,4.31S33.93,188.71,33.93,186.09Z" transform="translate(-0.72)" fill="#123356"/><path d="M38.05,180.88h1.33v9.37H44v1.13H38.05Z" transform="translate(-0.72)" fill="#123356"/><path d="M45.79,187v-6.16h1.34v6.2c0,2.52,1.07,3.32,2.44,3.32s2.48-.8,2.48-3.32v-6.2h1.28V187c0,3.37-1.62,4.53-3.76,4.53S45.79,190.41,45.79,187Z" transform="translate(-0.72)" fill="#123356"/><path d="M55.71,190l.8-.91a4.13,4.13,0,0,0,2.9,1.3c1.38,0,2.19-.69,2.19-1.71s-.76-1.41-1.75-1.85l-1.51-.66a3,3,0,0,1-2.12-2.7c0-1.61,1.4-2.79,3.3-2.79a4.31,4.31,0,0,1,3.09,1.3l-.71.86a3.34,3.34,0,0,0-2.38-1c-1.17,0-2,.6-2,1.54s.91,1.39,1.73,1.73l1.5.65A2.93,2.93,0,0,1,63,188.59c0,1.65-1.37,3-3.58,3A5,5,0,0,1,55.71,190Z" transform="translate(-0.72)" fill="#123356"/><path d="M65.5,180.88h1.33v10.5H65.5Z" transform="translate(-0.72)" fill="#123356"/><path d="M73.86,180.88H77c2.13,0,3.61.73,3.61,2.57a2.3,2.3,0,0,1-1.54,2.28v.07a2.41,2.41,0,0,1,2.14,2.51c0,2.06-1.64,3.07-4,3.07H73.86Zm2.89,4.47c1.79,0,2.52-.66,2.52-1.72,0-1.23-.84-1.69-2.46-1.69H75.2v3.41Zm.27,5c1.8,0,2.86-.65,2.86-2.06s-1-1.89-2.86-1.89H75.2v3.95Z" transform="translate(-0.72)" fill="#b6893c"/><path d="M83.75,180.88h1.33v10.5H83.75Z" transform="translate(-0.72)" fill="#b6893c"/><path d="M87.67,190l.8-.91a4.13,4.13,0,0,0,2.9,1.3c1.37,0,2.19-.69,2.19-1.71s-.76-1.41-1.75-1.85l-1.51-.66a3,3,0,0,1-2.12-2.7c0-1.61,1.39-2.79,3.3-2.79a4.35,4.35,0,0,1,3.09,1.3l-.71.86a3.34,3.34,0,0,0-2.38-1c-1.18,0-2,.6-2,1.54s.92,1.39,1.74,1.73l1.5.65a2.93,2.93,0,0,1,2.16,2.81c0,1.65-1.37,3-3.58,3A5,5,0,0,1,87.67,190Z" transform="translate(-0.72)" fill="#b6893c"/><path d="M97.45,180.88h1.38l3.8,6.6,1.13,2.17h.07c-.07-1.06-.17-2.24-.17-3.34v-5.43h1.27v10.5h-1.38l-3.8-6.61-1.13-2.16h-.07c.07,1.06.17,2.18.17,3.28v5.49H97.45Z" transform="translate(-0.72)" fill="#b6893c"/><path d="M108.28,180.88h1.34v10.5h-1.34Z" transform="translate(-0.72)" fill="#b6893c"/><path d="M112.21,190l.8-.91a4.09,4.09,0,0,0,2.89,1.3c1.38,0,2.2-.69,2.2-1.71s-.76-1.41-1.75-1.85l-1.51-.66a3,3,0,0,1-2.13-2.7c0-1.61,1.4-2.79,3.31-2.79a4.35,4.35,0,0,1,3.09,1.3l-.71.86a3.34,3.34,0,0,0-2.38-1c-1.18,0-2,.6-2,1.54s.92,1.39,1.74,1.73l1.49.65a2.92,2.92,0,0,1,2.17,2.81c0,1.65-1.37,3-3.58,3A5,5,0,0,1,112.21,190Z" transform="translate(-0.72)" fill="#b6893c"/><path d="M75.44,92.11H81.3a19.49,19.49,0,0,1,19.49,19.49v43.88a0,0,0,0,1,0,0H75.44a0,0,0,0,1,0,0V92.11A0,0,0,0,1,75.44,92.11Z" transform="translate(211.19 35.68) rotate(90)" fill="#123356"/><path d="M50.55,90.09l.18-36.61C50.73,41,40.09,30.86,27,30.86H25.38V98.59C34.07,98.59,43.36,96,50.55,90.09Z" transform="translate(-0.72)" fill="#123356"/><path d="M25.38,108.51v28H50.73V105.29C42.52,108,33.69,108.65,25.38,108.51Z" transform="translate(-0.72)" fill="#123356"/><path d="M123.79,90.94a11,11,0,0,1-1-2.09,1.85,1.85,0,0,1-.44.18,1.8,1.8,0,0,1-1.65-.6,4.06,4.06,0,0,1-1.08-2.05c-.37-1.71.25-3.29,1.38-3.54A1.6,1.6,0,0,1,122,83v0l0-.44a16,16,0,0,1,.22-2.06l-.57.15h0a12.5,12.5,0,0,0-1.46-1.45s0,0,0,0l.84-3.28c.11-.29-1-1.12-3-1.9s-3.32-1-3.44-.71L113,76.16s0,0,0,0a12.88,12.88,0,0,0-2.06,0h0l-1.72-2.91c0-.07-.14-.11-.31-.12A28.74,28.74,0,0,0,108,85.9a5,5,0,1,1,2.73,7.91A17.36,17.36,0,0,0,116,99.43a19.43,19.43,0,0,0,4,2.09c.38.14.77.27,1.14.39l-.85-3.22a0,0,0,0,1,0,0,12.58,12.58,0,0,0,1.45-1.47s0,0,0,0l3.27.83c.15.07.44-.21.8-.75a14,14,0,0,0,1.1-2.2c.07-.15.13-.32.2-.5A15.53,15.53,0,0,1,123.79,90.94Z" transform="translate(-0.72)" fill="#1e458e"/><path d="M127.21,94.56a15.7,15.7,0,0,1-3.38-3.64,10.87,10.87,0,0,1-1-2.11s0,0,0,0h0a1.25,1.25,0,0,1-.45.18,1.77,1.77,0,0,1-1.61-.58,3.93,3.93,0,0,1-1.06-2c-.37-1.68.23-3.25,1.34-3.49a1.62,1.62,0,0,1,1.06.17s0,0,0,0a0,0,0,0,0,0,0V83l0-.45a18.8,18.8,0,0,1,.23-2.09,0,0,0,0,0,0,0h0l-.58.15a14,14,0,0,0-1.45-1.43l.83-3.26c.14-.36-1.16-1.22-3-2s-3.35-1-3.5-.69l-1.69,2.91a12.63,12.63,0,0,0-2,0l-1.71-2.9c0-.08-.16-.13-.36-.14h0A28.68,28.68,0,0,0,107.93,86v0s0,0,0,0a5,5,0,0,1,5.9-1.64,5,5,0,0,1,2.73,6.51,5,5,0,0,1-5.94,2.92h0v0A17.67,17.67,0,0,0,116,99.47a19.83,19.83,0,0,0,4,2.09c.39.15.8.28,1.17.41h0a0,0,0,0,0,0,0l-.86-3.25a12.33,12.33,0,0,0,1.44-1.45l3.26.83c.22.1.58-.37.84-.77A14,14,0,0,0,127,95.1l.2-.52S127.22,94.56,127.21,94.56Zm-1.34,2.72c-.36.54-.65.82-.8.75l-3.27-.83s0,0,0,0a12.58,12.58,0,0,1-1.45,1.47,0,0,0,0,0,0,0l.85,3.22c-.37-.12-.76-.25-1.14-.39a19.43,19.43,0,0,1-4-2.09,17.36,17.36,0,0,1-5.31-5.62A5,5,0,0,0,116.62,87,5,5,0,0,0,108,85.9a28.74,28.74,0,0,1,.87-12.76c.17,0,.28,0,.31.12l1.72,2.91h0a12.88,12.88,0,0,1,2.06,0s0,0,0,0l1.7-2.92c.12-.29,1.53-.07,3.44.71s3.07,1.61,3,1.9l-.84,3.28s0,0,0,0a12.5,12.5,0,0,1,1.46,1.45h0l.57-.15a16,16,0,0,0-.22,2.06l0,.44v0a1.6,1.6,0,0,0-1.06-.16c-1.13.25-1.75,1.83-1.38,3.54a4.06,4.06,0,0,0,1.08,2.05,1.8,1.8,0,0,0,1.65.6,1.85,1.85,0,0,0,.44-.18,11,11,0,0,0,1,2.09,15.53,15.53,0,0,0,3.38,3.64c-.07.18-.13.35-.2.5A14,14,0,0,1,125.87,97.28Z" transform="translate(-0.72)" fill="#1e458e"/><path d="M118.25,103.89c1.89-.8,3-1.64,2.93-1.93-.37-.12-.77-.25-1.16-.4a19.83,19.83,0,0,1-4-2.09,17.5,17.5,0,0,1-5.34-5.67l-.27-.08h0l-.28-.1a5,5,0,0,1-2.53-2.28,5.31,5.31,0,0,1-.54-1.6,5.06,5.06,0,0,1,.32-2.69,2,2,0,0,1,.12-.27l0,0,0,0,.09-.18a.41.41,0,0,0,.05-.09l.11-.18,0,0,0,0,.16-.22a28.68,28.68,0,0,1,.87-12.81h-.34l-.17,0h-.06l-.15,0H108l-.14,0h0l-.06,0-.23.06h0l-.21.06-.08,0-.19.05-.08,0-.27.09h0l-.26.1-.09,0-.21.08-.09,0-.3.13c-1.9.79-3,1.64-2.93,1.92l.86,3.27s0,0,0,0a14.39,14.39,0,0,0-1.45,1.47h0l-3.27-.84c-.29-.12-1.12,1-1.91,3a14.51,14.51,0,0,0-.75,2.35c-.12.63-.11,1,0,1.09L99.19,88s0,0,0,0a12.88,12.88,0,0,0,0,2.06s0,0,0,0l-2.9,1.73c-.16.06-.16.46,0,1.09A13.47,13.47,0,0,0,97,95.21a13.76,13.76,0,0,0,1.13,2.19c.35.54.65.81.8.75l3.27-.87h0a12.5,12.5,0,0,0,1.46,1.45s0,0,0,0l-.84,3.28c-.11.29,1,1.12,3,1.9l.32.13c.45.17.89.32,1.3.44,1,.29,1.73.35,1.82.15l1.7-2.93s0,0,0,0a12.88,12.88,0,0,0,2.06,0h0l1.72,2.91c.07.15.48.16,1.14,0a11.31,11.31,0,0,0,1.24-.36C117.54,104.17,117.89,104,118.25,103.89Z" transform="translate(-0.72)" fill="#253d85"/><path d="M121.22,101.94h0v0c-.38-.12-.78-.25-1.18-.4a19.43,19.43,0,0,1-4-2.09,17.47,17.47,0,0,1-5.34-5.66h0l-.28-.09h0l-.28-.1a5,5,0,0,1-2.51-2.26,5.26,5.26,0,0,1-.53-1.58,5,5,0,0,1,.31-2.67,1.59,1.59,0,0,1,.12-.27l0-.05,0,0a1.5,1.5,0,0,1,.09-.18.41.41,0,0,0,0-.09l.11-.17v0l0,0L108,86v0a28.72,28.72,0,0,1,.87-12.82s0,0,0,0,0,0,0,0h-.37l-.17,0h-.06l-.15,0H108l-.15,0h0l-.06,0-.23,0,0,0-.21.06-.08,0-.19.06-.08,0-.28.09h0l-.26.09-.09,0-.21.08-.09,0-.29.12c-1.81.76-3.11,1.64-3,2l.87,3.25a12.33,12.33,0,0,0-1.44,1.45l-3.26-.83c-.36-.15-1.21,1.16-2,3a13.58,13.58,0,0,0-.75,2.35c-.09.47-.16,1,.06,1.14L99.16,88a12.63,12.63,0,0,0,0,2l-2.89,1.72c-.23.09-.15.67,0,1.14A13,13,0,0,0,97,95.23a13.34,13.34,0,0,0,1.13,2.19c.27.41.63.86.85.77l3.25-.86a13.15,13.15,0,0,0,1.45,1.44l-.83,3.25c-.14.36,1.16,1.22,3,2l.33.13c.45.18.88.32,1.29.44a5.8,5.8,0,0,0,1.45.27c.24,0,.39,0,.43-.15l1.69-2.9a13.89,13.89,0,0,0,2,0l1.61,2.72.1.17c.1.23.7.15,1.19,0a11.31,11.31,0,0,0,1.24-.36c.35-.12.71-.25,1.06-.4C120.07,103.17,121.37,102.3,121.22,101.94Zm-6.41,2.69-1.72-2.91h0a12.88,12.88,0,0,1-2.06,0s0,0,0,0l-1.7,2.93c-.09.2-.8.14-1.82-.15-.41-.12-.85-.27-1.3-.44l-.32-.13c-1.92-.78-3.07-1.61-3-1.9l.84-3.28s0,0,0,0a12.5,12.5,0,0,1-1.46-1.45h0L99,98.15c-.15.06-.45-.21-.8-.75A13.76,13.76,0,0,1,97,95.21a13.47,13.47,0,0,1-.77-2.34c-.13-.63-.13-1,0-1.09l2.9-1.73s0,0,0,0a12.88,12.88,0,0,1,0-2.06s0,0,0,0l-2.92-1.7c-.15-.06-.16-.46,0-1.09A14.51,14.51,0,0,1,97,82.81c.79-1.91,1.62-3.07,1.91-3l3.27.84h0a14.39,14.39,0,0,1,1.45-1.47s0,0,0,0l-.86-3.27c-.12-.28,1-1.13,2.93-1.92l.3-.13.09,0,.21-.08.09,0,.26-.1h0l.27-.09.08,0,.19-.05.08,0,.21-.06h0l.23-.06.06,0h0l.14,0h.08l.15,0h.06l.17,0h.34A28.68,28.68,0,0,0,107.93,86l-.16.22,0,0,0,0-.11.18a.41.41,0,0,1-.05.09l-.09.18,0,0,0,0a2,2,0,0,0-.12.27,5.06,5.06,0,0,0-.32,2.69,5.31,5.31,0,0,0,.54,1.6,5,5,0,0,0,2.53,2.28l.28.1h0l.27.08A17.5,17.5,0,0,0,116,99.47a19.83,19.83,0,0,0,4,2.09c.39.15.79.28,1.16.4.11.29-1,1.13-2.93,1.93-.36.14-.71.28-1.06.4a11.31,11.31,0,0,1-1.24.36C115.29,104.79,114.88,104.78,114.81,104.63Z" transform="translate(-0.72)" fill="#253d85"/><path d="M123.23,85a.59.59,0,0,0-.27.15c-.24-.78-.89-1.29-1.48-1.14a1.41,1.41,0,0,0-.73,1.81c.21.84.89,1.39,1.5,1.23a.94.94,0,0,0,.6-.47.85.85,0,0,0,.91.53,1,1,0,0,0,.51-1.25C124.12,85.32,123.65,84.93,123.23,85Z" transform="translate(-0.72)" fill="none"/><path d="M127.83,92a.22.22,0,0,0,0-.08v-.05s0,0,0,0v0l0,0v0l0,0-2.92-1.7a12.87,12.87,0,0,0,0-2.06l2.9-1.73c.34-.14,0-1.69-.73-3.46s-1.62-3.09-2-3l-2.66.71a20.84,20.84,0,0,0-.26,2.54V83a1.57,1.57,0,0,0-1.07-.17c-1.13.25-1.74,1.82-1.37,3.52s1.58,2.87,2.7,2.62a1.43,1.43,0,0,0,.46-.18,11.44,11.44,0,0,0,1,2.11,15.68,15.68,0,0,0,3.39,3.65h0l0-.07a.88.88,0,0,0,0-.15l.06-.16s0-.09,0-.14,0-.1.05-.15,0-.09,0-.14l0-.15a.56.56,0,0,1,0-.12c0-.06,0-.11,0-.16l0-.11.06-.24s0,0,0-.07l0-.16s0-.06,0-.09a.69.69,0,0,0,0-.13s0-.06,0-.09,0-.07,0-.11,0,0,0-.08,0-.07,0-.1V92Zm-4.07-4.8a.85.85,0,0,1-.91-.53.94.94,0,0,1-.6.47c-.61.16-1.29-.39-1.5-1.23a1.41,1.41,0,0,1,.73-1.81c.59-.15,1.24.36,1.48,1.14a.59.59,0,0,1,.27-.15c.42-.11.89.28,1,.86A1,1,0,0,1,123.76,87.15Z" transform="translate(-0.72)" fill="#3370b8"/><path d="M124.21,86.7a1.25,1.25,0,0,0,0-.79c-.15-.57-.6-1-1-.85a.76.76,0,0,0-.26.15,0,0,0,0,1,0,0h0c-.24-.78-.88-1.28-1.46-1.13a1,1,0,0,0-.66.63,1.94,1.94,0,0,0,0,1.15c.21.83.87,1.38,1.48,1.22a.94.94,0,0,0,.58-.46,0,0,0,0,1,0,0l0,0a.85.85,0,0,0,.89.52A.66.66,0,0,0,124.21,86.7Z" transform="translate(-0.72)" fill="#1f448a"/><path d="M124.29,85.89c-.15-.59-.63-1-1.07-.87a.6.6,0,0,0-.25.13,1.4,1.4,0,0,0-1.5-1.12,1,1,0,0,0-.69.66,1.85,1.85,0,0,0,0,1.17c.22.85.9,1.41,1.53,1.25a1,1,0,0,0,.59-.45.93.93,0,0,0,.77.53.39.39,0,0,0,.15,0,.69.69,0,0,0,.48-.46A1.33,1.33,0,0,0,124.29,85.89Zm-1.42.72,0,0a0,0,0,0,0,0,0,.94.94,0,0,1-.58.46c-.61.16-1.27-.39-1.48-1.22a1.94,1.94,0,0,1,0-1.15,1,1,0,0,1,.66-.63c.58-.15,1.22.35,1.46,1.13h0a0,0,0,0,0,0,0,.76.76,0,0,1,.26-.15c.42-.1.87.28,1,.85a1.25,1.25,0,0,1,0,.79.66.66,0,0,1-.45.43A.85.85,0,0,1,122.87,86.61Z" transform="translate(-0.72)" fill="#1f448a"/><path d="M100.13,1,74.51,38.72l11.31-4.5c0,1,0,2.1-.07,3.29A68.87,68.87,0,0,1,85,44.76a60.73,60.73,0,0,1-1.92,8.61,64.11,64.11,0,0,1-3.6,9.5,64.93,64.93,0,0,1-5.65,9.78c-4.49,6.45-9.62,14.12-17.23,18.88a71.52,71.52,0,0,1-23,9.73c-15.33,3.69-25.91.88-31.22-2.42-3.64-2.27,1.37,3.45,13.43,5.65A68.35,68.35,0,0,0,31,105.4a84.61,84.61,0,0,0,31.84-7.59A82.66,82.66,0,0,0,88,79.79,82,82,0,0,0,96.7,69.07a77.93,77.93,0,0,0,6.19-10.71,75.69,75.69,0,0,0,6.19-18.66c.21-1.08.37-2.09.51-3.05L121.5,43.4Z" transform="translate(-0.72)" stroke="#fff" stroke-miterlimit="10" fill="url(#radial-gradient)"/></g></g></svg>